<svg width="52" height="46" fill="none" xmlns="http://www.w3.org/2000/svg"><path d="M30.52 19.73a6.484 6.484 0 11-9.17 9.17 6.484 6.484 0 019.17-9.17z" fill="#6A0F2C"/><path d="M45.387 6.484h-4.48L37.663 0H14.204l-3.24 6.487-4.474.008C2.924 6.502.02 9.408.017 12.976L0 38.903a6.492 6.492 0 006.484 6.485h38.903a6.49 6.49 0 006.484-6.484V12.968a6.49 6.49 0 00-6.484-6.484zm-19.453 30.8c-7.15 0-12.968-5.818-12.968-12.969 0-7.15 5.818-12.968 12.969-12.968 7.15 0 12.968 5.818 12.968 12.968s-5.818 12.968-12.968 12.968z" fill="#6A0F2C"/></svg>