<svg width="36" height="36" fill="none" xmlns="http://www.w3.org/2000/svg"><g clip-path="url(#clip0)"><path d="M31.15 0H4.852A4.851 4.851 0 00.001 4.851V31.15A4.851 4.851 0 004.852 36h12.97l.022-12.864h-3.342a.788.788 0 01-.789-.785l-.016-4.147a.789.789 0 01.789-.791h3.336v-4.007c0-4.65 2.84-7.182 6.988-7.182h3.404c.435 0 .788.353.788.789v3.496a.789.789 0 01-.788.789h-2.089c-2.256 0-2.692 1.073-2.692 2.646v3.469h4.956c.473 0 .839.412.783.881l-.491 4.147a.789.789 0 01-.783.696h-4.443L23.433 36h7.717A4.851 4.851 0 0036 31.149V4.851A4.851 4.851 0 0031.15 0z" fill="#475993"/></g><defs><clipPath id="clip0"><path fill="#fff" d="M0 0h36v36H0z"/></clipPath></defs></svg>