<svg width="52" height="52" fill="none" xmlns="http://www.w3.org/2000/svg"><path d="M37.83 0H14.04C6.3 0 0 6.299 0 14.04v23.79c0 7.742 6.299 14.04 14.04 14.04h23.79c7.742 0 14.04-6.298 14.04-14.04V14.04C51.87 6.3 45.573 0 37.83 0zM25.935 40.118c-7.82 0-14.183-6.362-14.183-14.183 0-7.82 6.363-14.183 14.183-14.183 7.821 0 14.183 6.363 14.183 14.183 0 7.821-6.362 14.183-14.183 14.183zm14.523-25.02a4.195 4.195 0 01-4.191-4.192 4.196 4.196 0 014.19-4.191 4.196 4.196 0 014.192 4.191 4.196 4.196 0 01-4.191 4.191z" fill="#6A0F2C"/><path d="M25.935 14.793c-6.143 0-11.142 4.999-11.142 11.142 0 6.144 4.999 11.143 11.142 11.143 6.144 0 11.142-5 11.142-11.143 0-6.143-4.998-11.142-11.142-11.142zm14.523-5.037c-.634 0-1.15.516-1.15 1.15a1.151 1.151 0 002.3 0c0-.634-.516-1.15-1.15-1.15z" fill="#6A0F2C"/></svg>