<svg width="36" height="36" fill="none" xmlns="http://www.w3.org/2000/svg"><g clip-path="url(#clip0)"><path d="M2.25 2.45C-.579 5.387 0 8.51 0 17.991c0 7.875-1.374 15.77 5.817 17.628 2.245.578 22.142.578 24.384-.002 2.994-.773 5.43-3.202 5.763-7.436.047-.591.047-19.777-.002-20.38-.354-4.511-3.13-7.11-6.789-7.637C28.335.043 28.168.007 23.866 0 8.605.007 5.26-.672 2.25 2.45z" fill="url(#paint0_linear)"/><path d="M17.997 4.709c-5.447 0-10.619-.485-12.594 4.585-.816 2.094-.698 4.813-.698 8.707 0 3.418-.109 6.629.698 8.706 1.971 5.073 7.185 4.587 12.591 4.587 5.215 0 10.593.543 12.593-4.587.817-2.114.697-4.794.697-8.706 0-5.193.287-8.545-2.232-11.062-2.55-2.55-5.998-2.23-11.061-2.23h.006zm-1.191 2.395c11.361-.018 12.807-1.281 12.009 16.265-.284 6.205-5.009 5.524-10.817 5.524-10.59 0-10.894-.303-10.894-10.898 0-10.717.84-10.885 9.702-10.894v.003zm8.286 2.207a1.595 1.595 0 100 3.189 1.595 1.595 0 000-3.19zm-7.095 1.864a6.826 6.826 0 000 13.651 6.824 6.824 0 006.823-6.825 6.825 6.825 0 00-6.823-6.826zm0 2.395c5.858 0 5.865 8.863 0 8.863-5.856 0-5.865-8.863 0-8.863z" fill="#fff"/></g><defs><linearGradient id="paint0_linear" x1="2.319" y1="33.701" x2="35.777" y2="4.743" gradientUnits="userSpaceOnUse"><stop stop-color="#FD5"/><stop offset=".5" stop-color="#FF543E"/><stop offset="1" stop-color="#C837AB"/></linearGradient><clipPath id="clip0"><path fill="#fff" d="M0 0h36v36H0z"/></clipPath></defs></svg>