<svg width="59" height="65" fill="none" xmlns="http://www.w3.org/2000/svg"><path d="M42.97 11.204l-3.272.554a1.658 1.658 0 10.554 3.272l3.272-.553a1.658 1.658 0 10-.554-3.273zm-17.487-2.84l-2.19-2.995a1.66 1.66 0 10-2.68 1.959l2.191 2.995a1.66 1.66 0 002.68-1.959zm10.042-5.819a1.663 1.663 0 00-2.071 1.104l-1.082 3.549a1.66 1.66 0 103.175.968l1.082-3.55a1.66 1.66 0 00-1.104-2.07zM20.067 15.082l-3.272.554a1.658 1.658 0 10.554 3.272l3.272-.554a1.658 1.658 0 10-.554-3.272zM13.04 33.213l-6.545 1.108a1.66 1.66 0 00-1.359 1.913L9.568 62.41a1.66 1.66 0 001.913 1.359l6.544-1.108a1.66 1.66 0 001.359-1.913l-4.432-26.176a1.66 1.66 0 00-1.913-1.359zm41.6-2.583c-.718-2.488-3.393-3.886-5.947-3.453l-12.755 2.16c.755-2.125.408-7.713.002-9.952-.671-3.704-4.249-6.159-7.96-5.53l-1.35.229a1.658 1.658 0 00-1.36 1.912c.64 3.784.324 10.861-1.984 14.11-1.553 2.187-3.037 3.135-4.956 4.537l4.156 24.548c3.39.526 7.73 1.406 13.942.354l10.701-1.812c3.527-.597 5.72-4.328 3.77-7.547a4.986 4.986 0 002.814-5.348 4.972 4.972 0 00-.65-1.75c3.345-1.55 3.903-6.1 1.008-8.408a4.967 4.967 0 00.57-4.05z" fill="#E30613"/></svg>