<svg width="221" height="42" fill="none" xmlns="http://www.w3.org/2000/svg"><path d="M117.218 34.517V7.767h17.055v6.21h-9.946v20.54h-7.109zm38.504 0V24.041h-10.558v10.476h-7.108V7.767h7.108v9.983h10.558V7.768h7.114v26.75h-7.114zm48.378 0v-20.54h-8.307v-6.21h23.763v6.21h-8.343v20.54H204.1zm-18.772-.005v-15.24l-11.313 15.24h-5.947V7.772h7.114V22.85l11.123-15.077h6.142v26.74h-7.119zm-108.973.005V18.62l-7.098 8.394-7.099-8.394v15.897H55.05V7.767h7.016l7.19 9.199 7.197-9.198h7.016v26.75h-7.114zm20.611-9.407h6.61l-3.305-8.388-3.305 8.388zm10.311 9.402l-1.475-3.751H94.736l-1.48 3.751h-7.16L97.032 7.768h6.574l10.938 26.744h-7.268zM0 13.204c0-3.247 1.285-6.307 3.613-8.613a12.279 12.279 0 018.692-3.573h28.42v6.195h-28.42a6.05 6.05 0 00-4.271 1.761c-1.146 1.14-1.784 2.642-1.784 4.23L6.22 23.6c-.294 2.764-2.39 4.988-5.11 5.4L0 29.167V13.204zm0 28.063v-6.195h28.414a6.035 6.035 0 004.271-1.761 5.923 5.923 0 001.784-4.23l.01-9.87c0-2.937 2.21-5.488 5.14-5.93l1.105-.168v15.963c0 3.247-1.285 6.307-3.613 8.607a12.266 12.266 0 01-8.697 3.579H0v.005z" fill="#E20D18"/><path d="M24.066 29.188v-8.002l-3.706 4.377-3.701-4.377v8.002H11.75V13.433h4.652l3.958 5.065 3.963-5.065h4.646v15.755h-4.903z" fill="#E20D18"/></svg>