<svg width="375" height="40" fill="none" xmlns="http://www.w3.org/2000/svg"><path d="M6.968 22.575l.038-10.168c0-1.553.63-3.025 1.774-4.138a6.079 6.079 0 014.255-1.722h28.297V.485H13.035c-3.266 0-6.338 1.241-8.658 3.497-2.32 2.256-3.6 5.248-3.6 8.421v15.613l1.103-.164a5.988 5.988 0 005.088-5.277zm28.149-4.2l-.008 9.653c0 1.558-.63 3.025-1.775 4.135a6.057 6.057 0 01-4.255 1.726H.782v6.058h28.297c3.266 0 6.342-1.242 8.658-3.498 2.32-2.256 3.595-5.244 3.595-8.42V12.41l-1.102.165c-2.912.431-5.113 2.926-5.113 5.799z" fill="#E30613"/><path d="M13.132 20.335c0 4.258 3.545 7.706 7.923 7.706 4.377 0 7.922-3.448 7.922-7.706 0-4.258-3.549-7.706-7.922-7.706-4.373 0-7.923 3.452-7.923 7.706zm103.036 12.707h7.022v-19.92h9.824V7.097h-16.846v25.945zm38.036-16.262h-10.432V7.097h-7.023v25.945h7.023v-10.16h10.432v10.16h7.023V7.097h-7.023v9.683zm39.575-3.658h8.206v19.92h7.026v-19.92h8.244V7.097h-23.476v6.025zm-20.358 8.61V7.102h-7.027v25.94h5.874l11.18-14.783v14.783h7.027V7.102h-6.068l-10.986 14.63zM68.797 16.02L61.69 7.097h-6.925v25.945h7.018v-15.42l7.014 8.146 7.01-8.146v15.42h7.027V7.097h-6.93l-7.107 8.923zm174.085.004l-7.107-8.927h-6.926v25.95h7.019v-15.42l7.014 8.145 7.009-8.145v15.42h7.027V7.096h-6.929l-7.107 8.927zM96.237 7.097L85.432 33.042h7.074l1.457-3.637h10.927l1.458 3.637h7.183L102.727 7.097h-6.49zm-.072 16.822l3.262-8.142 3.266 8.142h-6.528zm173.121-1.879h10.91v-5.53h-10.91v-3.806h13.546V7.097h-19.855V33.05h20.257v-5.6h-13.948v-5.41zm56.953-.308V7.097h-7.026v25.95h5.873l11.18-14.792v14.791h7.027V7.097h-6.063l-10.991 14.635zm37.336-14.635h-6.495l-10.804 25.945h7.073l1.458-3.637h10.927l1.458 3.637h7.183l-10.8-25.945zm-6.567 16.822l3.262-8.142 3.267 8.142h-6.529zM313.103 7.397l-19.665-.3-.076 4.727c-.106 6.645-1.145 11.536-3.025 14.511l-3.005-.05-.177 10.95 6.706.102.08-4.837 15.122.23-.076 4.841 6.74.103.177-10.94-3.11-.05.309-19.287zm-7.424 19.168l-7.686-.115c1.432-3.736 2.244-8.154 2.413-13.139l5.484.082-.211 13.172z" fill="#E30613"/></svg>