<svg width="60" height="51" fill="none" xmlns="http://www.w3.org/2000/svg"><path d="M41.828 2.305L14.17 16.475l-7.797.728a5.258 5.258 0 00-4.74 5.715l.596 6.389c.256 2.736 2.583 4.446 5.661 4.159l1.975-.185 3.487 14.57a1.749 1.749 0 001.863 1.335l6.97-.65a1.75 1.75 0 001.552-2.1L21.23 34.378l24.256 7.172c.219.064.441.086.66.066a1.75 1.75 0 001.58-1.905L44.365 3.7a1.75 1.75 0 00-2.538-1.395zm8.87 13.522l5.395-4.968c.696-.643.722-1.7.053-2.36-.67-.657-1.775-.67-2.474-.03l-5.394 4.967c-.697.643-.723 1.7-.054 2.36.381.376.908.543 1.419.495a1.812 1.812 0 001.055-.464zm1.155 12.376c-.807-.555-1.891-.326-2.424.514-.529.842-.298 1.982.511 2.543l6.261 4.327a1.71 1.71 0 001.127.298 1.724 1.724 0 001.297-.811c.528-.843.298-1.983-.511-2.543l-6.261-4.328zm4.031-7.807l-5.808.542c-.962.09-1.678.857-1.598 1.711.08.855.925 1.476 1.887 1.387l5.808-.542c.962-.09 1.677-.856 1.598-1.711-.08-.855-.925-1.476-1.887-1.387z" fill="#E30613"/></svg>