<svg width="54" height="62" fill="none" xmlns="http://www.w3.org/2000/svg"><path d="M26.886 43.137c6.918 0 12.547-5.628 12.547-12.547V12.547C39.433 5.629 33.804 0 26.886 0 19.968 0 14.34 5.629 14.34 12.547V30.59c0 6.919 5.629 12.547 12.547 12.547z" fill="#6A0F2C"/><path d="M44.81 25.213c-.99 0-1.792.803-1.792 1.793v3.584c0 8.896-7.237 16.132-16.132 16.132-8.895 0-16.131-7.236-16.131-16.132v-3.584a1.792 1.792 0 00-3.585 0v3.584c0 10.268 7.889 18.726 17.924 19.635v7.371h-8.962a1.792 1.792 0 000 3.585H37.64a1.792 1.792 0 000-3.585h-8.962v-7.371c10.034-.909 17.924-9.367 17.924-19.635v-3.584c0-.99-.803-1.793-1.793-1.793zM8.962 18.044c.99 0 1.793-.803 1.793-1.793V7.29a1.792 1.792 0 00-3.585 0v8.962c0 .99.802 1.793 1.792 1.793zM1.792 0C.802 0 0 .803 0 1.792v19.836a1.792 1.792 0 003.585 0V1.792C3.585.802 2.782 0 1.792 0zM44.81 5.497c-.99 0-1.792.802-1.792 1.792v8.962a1.793 1.793 0 003.585 0V7.29c0-.99-.803-1.792-1.793-1.792zM51.98 0c-.99 0-1.792.803-1.792 1.792v19.836a1.792 1.792 0 003.584 0V1.792C53.772.802 52.97 0 51.98 0z" fill="#6A0F2C"/></svg>