<svg width="55" height="52" fill="none" xmlns="http://www.w3.org/2000/svg"><path d="M3.408 13.567h10.784c-.774-.528-1.439-1.053-1.902-1.524-2.75-2.764-2.75-7.262 0-10.026 2.672-2.693 7.327-2.686 9.996 0 1.48 1.482 5.399 7.518 4.857 11.55h.245c-.538-4.032 3.381-10.068 4.857-11.55 2.672-2.686 7.327-2.686 9.996 0 2.747 2.764 2.747 7.262.003 10.027-.467.47-1.131.995-1.905 1.523h10.784a3.414 3.414 0 013.408 3.408v5.112c0 .941-.764 1.704-1.704 1.704H30.674v-6.816h-6.817v6.816H1.704c-.94 0-1.704-.763-1.704-1.704v-5.112a3.412 3.412 0 013.408-3.408zm27.467-.113s.143.113.63.113c2.355 0 6.85-2.447 8.32-3.926a3.717 3.717 0 000-5.222 3.62 3.62 0 00-2.584-1.077 3.62 3.62 0 00-2.58 1.077c-2.297 2.311-4.58 8.214-3.786 9.035zm-7.846.113c.484 0 .627-.11.627-.113.794-.82-1.49-6.724-3.786-9.035-1.374-1.387-3.777-1.394-5.164 0a3.711 3.711 0 000 5.222c1.47 1.479 5.965 3.926 8.323 3.926zm.828 13.633v23.857H6.817a3.41 3.41 0 01-3.41-3.408v-20.45h20.45zm27.265 0v20.449a3.412 3.412 0 01-3.408 3.408h-17.04V27.2h20.448z" fill="#6A0F2C"/></svg>