<svg width="42" height="25" fill="none" xmlns="http://www.w3.org/2000/svg"><path fill-rule="evenodd" clip-rule="evenodd" d="M41.012 1.735c.311-.979 0-1.69-1.38-1.69h-4.58c-1.157 0-1.691.622-2.002 1.29 0 0-2.358 5.693-5.65 9.386-1.067 1.067-1.556 1.423-2.135 1.423-.311 0-.711-.356-.711-1.334V1.69c0-1.156-.356-1.69-1.335-1.69h-7.206c-.712 0-1.156.534-1.156 1.068 0 1.112 1.646 1.379 1.823 4.492v6.762c0 1.468-.266 1.735-.845 1.735-1.557 0-5.337-5.738-7.606-12.278C7.784.49 7.339 0 6.183 0H1.557C.222 0 0 .623 0 1.29c0 1.201 1.557 7.25 7.25 15.258 3.781 5.472 9.164 8.408 14.012 8.408 2.936 0 3.292-.668 3.292-1.78V19.04c0-1.334.267-1.557 1.2-1.557.668 0 1.869.356 4.582 2.98C33.45 23.577 33.984 25 35.718 25H40.3c1.334 0 1.957-.667 1.601-1.957-.4-1.29-1.912-3.159-3.87-5.383-1.067-1.245-2.668-2.624-3.158-3.292-.667-.89-.489-1.245 0-2.046-.044 0 5.56-7.918 6.139-10.587z" fill="#E30613"/></svg>