<svg width="25" height="15" fill="none" xmlns="http://www.w3.org/2000/svg"><path fill-rule="evenodd" clip-rule="evenodd" d="M24.126 1.4c.18-.559 0-.965-.798-.965h-2.652c-.67 0-.979.355-1.16.736 0 0-1.364 3.251-3.27 5.36-.617.609-.9.812-1.235.812-.18 0-.412-.203-.412-.762V1.375c0-.66-.206-.965-.773-.965H9.655c-.412 0-.67.304-.67.61 0 .634.953.786 1.056 2.564v3.86c0 .839-.155.99-.49.99-.9 0-3.09-3.275-4.403-7.009C4.891.69 4.634.41 3.964.41H1.286c-.772 0-.901.355-.901.736 0 .686.901 4.14 4.197 8.711 2.189 3.124 5.304 4.8 8.111 4.8 1.7 0 1.906-.38 1.906-1.016V11.28c0-.761.154-.889.695-.889.386 0 1.081.204 2.652 1.702 1.802 1.778 2.111 2.59 3.116 2.59h2.652c.772 0 1.133-.38.927-1.117-.232-.736-1.107-1.803-2.24-3.073-.618-.711-1.545-1.498-1.828-1.88-.387-.507-.284-.71 0-1.168-.026 0 3.218-4.52 3.553-6.044z" fill="#fff"/></svg>