<svg width="52" height="46" viewBox="0 0 52 46" fill="none" xmlns="http://www.w3.org/2000/svg">
<path d="M30.5196 19.7303C33.0517 22.2625 33.0517 26.3679 30.5196 28.9001C27.9874 31.4323 23.8819 31.4323 21.3498 28.9001C18.8176 26.3679 18.8176 22.2625 21.3498 19.7303C23.8819 17.1981 27.9874 17.1981 30.5196 19.7303Z" fill="#6A0F2C"/>
<path d="M45.3867 6.48406H40.9067L37.6632 0H14.2044L10.9639 6.48725L6.49032 6.49521C2.92382 6.50158 0.0204953 9.40799 0.0174157 12.9761L0 38.9027C0 42.4787 2.908 45.3883 6.48406 45.3883H45.3867C48.9628 45.3883 51.8708 42.4803 51.8708 38.9043V12.968C51.8707 9.39206 48.9627 6.48406 45.3867 6.48406ZM25.9345 37.2832C18.784 37.2832 12.9664 31.4656 12.9664 24.3151C12.9664 17.1646 18.784 11.347 25.9345 11.347C33.0851 11.347 38.9027 17.1646 38.9027 24.3151C38.9027 31.4656 33.0851 37.2832 25.9345 37.2832Z" fill="#6A0F2C"/>
</svg>
