<svg width="36" height="36" viewBox="0 0 36 36" fill="none" xmlns="http://www.w3.org/2000/svg">
<g clip-path="url(#clip0)">
<path d="M31.1495 0H4.85205C2.17293 0 0.000976562 2.17186 0.000976562 4.85107V31.1488C0.000976562 33.828 2.17284 35.9998 4.85205 35.9998H17.8219L17.844 23.1354H14.5018C14.0675 23.1354 13.7149 22.7842 13.7133 22.3499L13.6972 18.2032C13.6956 17.7665 14.0491 17.4115 14.4859 17.4115H17.8219V13.4048C17.8219 8.75492 20.6618 6.22304 24.8097 6.22304H28.2135C28.6489 6.22304 29.0021 6.57609 29.0021 7.01166V10.5082C29.0021 10.9436 28.6492 11.2966 28.2139 11.2968L26.1251 11.2978C23.8693 11.2978 23.4325 12.3697 23.4325 13.9428V17.4116H28.3892C28.8615 17.4116 29.228 17.824 29.1723 18.2931L28.6808 22.4398C28.6338 22.8366 28.2973 23.1356 27.8977 23.1356H23.4546L23.4325 36H31.1497C33.8288 36 36.0007 33.8281 36.0007 31.149V4.85107C36.0006 2.17186 33.8288 0 31.1495 0Z" fill="#475993"/>
</g>
<defs>
<clipPath id="clip0">
<rect width="36" height="36" fill="white"/>
</clipPath>
</defs>
</svg>
