<svg width="25" height="25" viewBox="0 0 25 25" fill="none" xmlns="http://www.w3.org/2000/svg">
<path d="M18.2327 0H6.76725C3.03573 0 0 3.03573 0 6.76725V18.2329C0 21.9642 3.03573 24.9999 6.76725 24.9999H18.2329C21.9642 24.9999 24.9999 21.9642 24.9999 18.2329V6.76725C24.9999 3.03573 21.9642 0 18.2327 0V0ZM12.5 19.3357C8.73067 19.3357 5.66424 16.2693 5.66424 12.5C5.66424 8.73067 8.73067 5.66424 12.5 5.66424C16.2693 5.66424 19.3357 8.73067 19.3357 12.5C19.3357 16.2693 16.2693 19.3357 12.5 19.3357ZM19.4991 7.27632C18.3853 7.27632 17.4793 6.37033 17.4793 5.25645C17.4793 4.14256 18.3853 3.23638 19.4991 3.23638C20.613 3.23638 21.5192 4.14256 21.5192 5.25645C21.5192 6.37033 20.613 7.27632 19.4991 7.27632Z" fill="#E20D1B"/>
<path d="M12.5 7.12988C9.53905 7.12988 7.12988 9.53886 7.12988 12.5C7.12988 15.461 9.53905 17.8701 12.5 17.8701C15.4612 17.8701 17.8701 15.461 17.8701 12.5C17.8701 9.53886 15.4612 7.12988 12.5 7.12988Z" fill="#E20D1B"/>
<path d="M19.4991 4.70215C19.1935 4.70215 18.9448 4.95087 18.9448 5.25642C18.9448 5.56198 19.1935 5.8107 19.4991 5.8107C19.8048 5.8107 20.0536 5.56217 20.0536 5.25642C20.0536 4.95068 19.8048 4.70215 19.4991 4.70215Z" fill="#E20D1B"/>
</svg>
