<svg width="52" height="52" viewBox="0 0 52 52" fill="none" xmlns="http://www.w3.org/2000/svg">
<path d="M37.8298 0H14.0409C6.29863 0 0 6.29863 0 14.0409V37.8301C0 45.572 6.29863 51.8707 14.0409 51.8707H37.8301C45.572 51.8707 51.8707 45.572 51.8707 37.8301V14.0409C51.8707 6.29863 45.572 0 37.8298 0V0ZM25.9353 40.1183C18.1147 40.1183 11.7523 33.756 11.7523 25.9353C11.7523 18.1147 18.1147 11.7523 25.9353 11.7523C33.756 11.7523 40.1183 18.1147 40.1183 25.9353C40.1183 33.756 33.756 40.1183 25.9353 40.1183ZM40.4575 15.0972C38.1463 15.0972 36.2666 13.2174 36.2666 10.9062C36.2666 8.59512 38.1463 6.71495 40.4575 6.71495C42.7686 6.71495 44.6488 8.59512 44.6488 10.9062C44.6488 13.2174 42.7686 15.0972 40.4575 15.0972Z" fill="#6A0F2C"/>
<path d="M25.9353 14.7933C19.7918 14.7933 14.7932 19.7916 14.7932 25.9354C14.7932 32.0789 19.7918 37.0776 25.9353 37.0776C32.0792 37.0776 37.0774 32.0789 37.0774 25.9354C37.0774 19.7916 32.0792 14.7933 25.9353 14.7933Z" fill="#6A0F2C"/>
<path d="M40.4575 9.75623C39.8235 9.75623 39.3074 10.2723 39.3074 10.9063C39.3074 11.5402 39.8235 12.0563 40.4575 12.0563C41.0918 12.0563 41.6079 11.5406 41.6079 10.9063C41.6079 10.2719 41.0918 9.75623 40.4575 9.75623Z" fill="#6A0F2C"/>
</svg>
