<svg width="59" height="65" viewBox="0 0 59 65" fill="none" xmlns="http://www.w3.org/2000/svg">
<path d="M42.9702 11.2044L39.6983 11.7584C38.7941 11.9115 38.1861 12.7671 38.3393 13.6714C38.4923 14.5756 39.3479 15.1836 40.2523 15.0304L43.5242 14.4765C44.4284 14.3234 45.0363 13.4678 44.8832 12.5634C44.73 11.6591 43.8744 11.0513 42.9702 11.2044Z" fill="#E30613"/>
<path d="M25.4831 8.36401L23.2932 5.36906C22.749 4.62959 21.7147 4.47116 20.9741 5.00904C20.2341 5.55008 20.073 6.58812 20.6141 7.32811L22.8041 10.323C23.3441 11.0599 24.3778 11.2251 25.1232 10.6831C25.863 10.1421 26.0241 9.10401 25.4831 8.36401Z" fill="#E30613"/>
<path d="M35.5253 2.54528C34.6521 2.28062 33.7214 2.77187 33.454 3.64864L32.372 7.19757C32.1047 8.07443 32.5986 9.00146 33.4753 9.26887C34.3602 9.53603 35.2801 9.03609 35.5466 8.16551L36.6287 4.61658C36.8959 3.73972 36.402 2.81258 35.5253 2.54528Z" fill="#E30613"/>
<path d="M20.0666 15.0821L16.7947 15.6361C15.8904 15.7892 15.2825 16.6448 15.4356 17.5491C15.5887 18.4533 16.4443 19.0612 17.3486 18.9081L20.6206 18.3542C21.5248 18.2011 22.1327 17.3455 21.9796 16.4411C21.8265 15.5368 20.9708 14.929 20.0666 15.0821Z" fill="#E30613"/>
<path d="M13.0392 33.2132L6.49521 34.3211C5.59175 34.4741 4.98321 35.3306 5.13619 36.2342L9.56802 62.4096C9.72098 63.3131 10.5775 63.9216 11.481 63.7686L18.0249 62.6607C18.9284 62.5077 19.5369 61.6512 19.3839 60.7477L14.9521 34.5721C14.7991 33.6686 13.9427 33.0602 13.0392 33.2132Z" fill="#E30613"/>
<path d="M54.6401 30.6306C53.9219 28.1416 51.2467 26.7442 48.6925 27.1766L35.938 29.3361C36.6933 27.2117 36.3456 21.6236 35.9401 19.3854C35.2689 15.6806 31.6912 13.2264 27.9791 13.8549L26.6291 14.0835C25.7249 14.2366 25.117 15.0922 25.2701 15.9965C25.9106 19.7796 25.5937 26.8574 23.2859 30.1061C21.7325 32.2926 20.2487 33.2409 18.3299 34.6434L22.4862 59.1911C25.8765 59.7174 30.2169 60.5966 36.4275 59.545L47.1293 57.7331C50.6555 57.136 52.8488 53.4052 50.8982 50.186C52.8839 49.2665 54.0959 47.0973 53.7134 44.8382C53.6055 44.2007 53.3792 43.6113 53.0622 43.0881C56.4085 41.5383 56.9663 36.988 54.071 34.6804C54.7963 33.5296 55.0582 32.0791 54.6401 30.6306Z" fill="#E30613"/>
</svg>
