<svg width="53" height="40" viewBox="0 0 53 40" fill="none" xmlns="http://www.w3.org/2000/svg">
<path d="M9.48787 15.4633H9.49462C9.49462 12.1866 12.1513 9.52608 15.408 9.52608C18.6656 9.52608 21.3214 12.1934 21.3214 15.4633V39.8163H24.3463L30.8093 33.7166V15.4633C30.8093 12.1866 33.4659 9.52608 36.7226 9.52608C39.9861 9.52608 42.636 12.1934 42.636 15.4633V22.5556L52.0202 13.698C51.1479 6.00235 44.6201 0 36.7159 0C32.7284 0 28.9154 1.55115 26.0582 4.30227C23.2018 1.55115 19.3887 0 15.4013 0C6.90878 0 0 6.9366 0 15.4633V39.8163H9.48787V15.4633Z" fill="#56267E"/>
<path d="M52.2527 15.4633L42.7716 24.3276L30.9381 35.3845L26.1946 39.8163H52.2527V15.4633Z" fill="#56267E"/>
</svg>
