<svg width="375" height="40" viewBox="0 0 375 40" fill="none" xmlns="http://www.w3.org/2000/svg">
<path d="M6.96761 22.5747L7.00563 12.4072C7.00563 10.8537 7.63521 9.38243 8.78028 8.26869C9.92535 7.15906 11.4338 6.54671 13.0352 6.54671H41.3324V0.484863H13.0352C9.76902 0.484863 6.69718 1.726 4.37747 3.98224C2.05775 6.23848 0.777466 9.23037 0.777466 12.4031V28.0159L1.88028 27.8516C4.58451 27.457 6.68028 25.2748 6.96761 22.5747Z" fill="#E30613"/>
<path d="M35.1169 18.3746L35.1085 28.0283C35.1085 29.5859 34.4789 31.0531 33.3338 32.1627C32.193 33.2765 30.6803 33.8888 29.0789 33.8888H0.781708V39.9466H29.0789C32.3451 39.9466 35.4211 38.7054 37.7366 36.4492C40.0564 34.1929 41.3324 31.2052 41.3324 28.0283V12.4114L40.2296 12.5758C37.3183 13.0073 35.1169 15.5019 35.1169 18.3746Z" fill="#E30613"/>
<path d="M13.1324 20.3349C13.1324 24.5926 16.6775 28.0406 21.0549 28.0406C25.4324 28.0406 28.9775 24.5926 28.9775 20.3349C28.9775 16.0772 25.4282 12.6292 21.0549 12.6292C16.6817 12.6292 13.1324 16.0813 13.1324 20.3349Z" fill="#E30613"/>
<path d="M116.168 33.0421H123.19V13.1223H133.014V7.09741H116.168V33.0421Z" fill="#E30613"/>
<path d="M154.204 16.7799H143.772V7.09741H136.749V33.0421H143.772V22.8829H154.204V33.0421H161.227V7.09741H154.204V16.7799Z" fill="#E30613"/>
<path d="M193.779 13.1223H201.985V33.0421H209.011V13.1223H217.255V7.09741H193.779V13.1223Z" fill="#E30613"/>
<path d="M173.421 21.7322V7.10156H166.394V33.0422H172.268L183.448 18.2595V33.0422H190.475V7.10156H184.407L173.421 21.7322Z" fill="#E30613"/>
<path d="M68.7972 16.0196L61.6902 7.09741H54.7648V33.0421H61.7831V17.6224L68.7972 25.7679L75.8071 17.6224V33.0421H82.8338V7.09741H75.9042L68.7972 16.0196Z" fill="#E30613"/>
<path d="M242.882 16.0237L235.775 7.09741H228.849V33.0463H235.868V17.6265L242.882 25.772L249.891 17.6265V33.0463H256.918V7.09741H249.989L242.882 16.0237Z" fill="#E30613"/>
<path d="M96.2366 7.09741L85.4324 33.0421H92.5056L93.9634 29.405H104.89L106.348 33.0421H113.531L102.727 7.09741H96.2366ZM96.1648 23.9185L99.4268 15.7772L102.693 23.9185H96.1648Z" fill="#E30613"/>
<path d="M269.286 22.0404H280.196V16.5087H269.286V12.7031H282.832V7.09741H262.977V33.0504H283.234V27.4488H269.286V22.0404Z" fill="#E30613"/>
<path d="M326.239 21.7322V7.09741H319.213V33.0463H325.086L336.266 18.2553V33.0463H343.293V7.09741H337.23L326.239 21.7322Z" fill="#E30613"/>
<path d="M363.575 7.09741H357.08L346.276 33.0421H353.349L354.807 29.405H365.734L367.192 33.0421H374.375L363.575 7.09741ZM357.008 23.9185L360.27 15.7772L363.537 23.9185H357.008Z" fill="#E30613"/>
<path d="M313.103 7.39742L293.438 7.09741L293.362 11.8236C293.256 18.469 292.217 23.3596 290.337 26.3351L287.332 26.2857L287.155 37.2341L293.861 37.3368L293.941 32.4996L309.063 32.7298L308.987 37.5711L315.727 37.6738L315.904 26.7337L312.794 26.6844L313.103 7.39742ZM305.679 26.5652L297.993 26.4501C299.425 22.7144 300.237 18.2964 300.406 13.3113L305.89 13.3935L305.679 26.5652Z" fill="#E30613"/>
</svg>
