<svg width="221" height="42" viewBox="0 0 221 42" fill="none" xmlns="http://www.w3.org/2000/svg">
<path d="M117.218 34.5173V7.76779H134.273V13.9779H124.327V34.5173H117.218Z" fill="#E20D18"/>
<path d="M155.722 34.5173V24.0415H145.164V34.5173H138.056V7.76779H145.164V17.7499H155.722V7.76779H162.836V34.5173H155.722Z" fill="#E20D18"/>
<path d="M204.1 34.5173V13.9779H195.793V7.76779H219.556V13.9779H211.213V34.5173H204.1Z" fill="#E20D18"/>
<path d="M185.328 34.5122V19.2718L174.015 34.5122H168.068V7.77287H175.182V22.8503L186.305 7.77287H192.447V34.5122H185.328Z" fill="#E20D18"/>
<path d="M76.3549 34.5173V18.6203L69.2566 27.0142L62.1582 18.6203V34.5173H55.0496V7.76779H62.0657L69.2566 16.966L76.4526 7.76779H83.4687V34.5173H76.3549Z" fill="#E20D18"/>
<path d="M96.9663 25.1104H103.576L100.271 16.7216L96.9663 25.1104ZM107.277 34.5122L105.802 30.7606H94.7356L93.2552 34.5122H86.0952L97.0332 7.76779H103.607L114.545 34.5122H107.277Z" fill="#E20D18"/>
<path d="M0 13.2042C0 9.9566 1.285 6.89734 3.61343 4.59144C5.94186 2.28553 9.031 1.01805 12.3052 1.01805H40.7243V7.21294H12.3052C10.7015 7.21294 9.1852 7.83904 8.03384 8.97418C6.88762 10.1144 6.25026 11.616 6.25026 13.2042L6.21942 23.5986C5.92644 26.3626 3.82931 28.5871 1.11024 28.9994L0 29.1674V13.2042Z" fill="#E20D18"/>
<path d="M0 41.267V35.0721H28.414C30.0228 35.0721 31.5391 34.446 32.6853 33.3109C33.8316 32.1757 34.4689 30.6741 34.4689 29.0808L34.4792 19.2108C34.4792 16.2737 36.6894 13.7234 39.6192 13.2806L40.7243 13.1126V29.0758C40.7243 32.3234 39.4393 35.3826 37.1109 37.6834C34.7825 39.9944 31.6933 41.2619 28.414 41.2619H0V41.267Z" fill="#E20D18"/>
<path d="M24.0656 29.1877V21.1858L20.3596 25.5634L16.6588 21.1858V29.1877H11.7501V13.4333H16.4018L20.3596 18.4981L24.3226 13.4333H28.9692V29.1877H24.0656Z" fill="#E20D18"/>
</svg>
