<svg width="60" height="51" viewBox="0 0 60 51" fill="none" xmlns="http://www.w3.org/2000/svg">
<path d="M41.8275 2.30526L14.17 16.4756L6.37319 17.2029C3.49236 17.4716 1.36474 20.0369 1.63345 22.9177L2.22936 29.3066C2.48462 32.0434 4.81175 33.7526 7.89006 33.4655L9.86482 33.2813L13.3516 47.851C13.555 48.6991 14.3485 49.2672 15.215 49.1864L22.1848 48.5363C22.682 48.4899 23.1339 48.2345 23.4316 47.8341C23.7271 47.434 23.8391 46.9267 23.7372 46.4371L21.2297 34.3772L45.4856 41.5495C45.7049 41.6134 45.9271 41.6349 46.1455 41.6145C46.487 41.5827 46.8213 41.4484 47.0957 41.2236C47.5439 40.8537 47.7794 40.2881 47.7254 39.7096L44.3667 3.69947C44.3127 3.12098 43.9767 2.60865 43.4677 2.32803C42.9565 2.04764 42.3417 2.03936 41.8275 2.30526Z" fill="#E30613"/>
<path d="M50.6984 15.8267L56.0925 10.8589C56.7893 10.2157 56.815 9.15967 56.1465 8.49873C55.4761 7.84244 54.3713 7.82941 53.6718 8.46837L48.2776 13.4362C47.5808 14.0794 47.5552 15.1355 48.2236 15.7964C48.6054 16.1715 49.1318 16.339 49.6428 16.2913C50.0261 16.2556 50.3982 16.1003 50.6984 15.8267Z" fill="#E30613"/>
<path d="M51.8527 28.2035C51.0464 27.6476 49.9619 27.8765 49.4287 28.7169C48.9005 29.5593 49.131 30.6993 49.9401 31.2599L56.2012 35.5871C56.549 35.8247 56.9446 35.9204 57.3278 35.8847C57.8388 35.837 58.3232 35.5536 58.6252 35.0737C59.1534 34.2312 58.9229 33.0912 58.1139 32.5307L51.8527 28.2035Z" fill="#E30613"/>
<path d="M55.8838 20.3963L50.0756 20.9381C49.1138 21.0278 48.3979 21.7945 48.4777 22.6494C48.5574 23.5044 49.4027 24.1254 50.3646 24.0357L56.1727 23.494C57.1345 23.4043 57.8504 22.6376 57.7707 21.7826C57.6909 20.9277 56.8456 20.3066 55.8838 20.3963Z" fill="#E30613"/>
</svg>
