<svg width="54" height="62" viewBox="0 0 54 62" fill="none" xmlns="http://www.w3.org/2000/svg">
<path d="M26.8861 43.1373C33.8044 43.1373 39.4329 37.5088 39.4329 30.5904V12.5469C39.4329 5.62852 33.8044 0 26.8861 0C19.9678 0 14.3392 5.62852 14.3392 12.5469V30.5904C14.3392 37.5088 19.9678 43.1373 26.8861 43.1373Z" fill="#6A0F2C"/>
<path d="M44.8102 25.2133C43.8204 25.2133 43.0178 26.0158 43.0178 27.0057V30.5905C43.0178 39.4855 35.7812 46.7222 26.8862 46.7222C17.9912 46.7222 10.7545 39.4855 10.7545 30.5905V27.0057C10.7545 26.0158 9.95197 25.2133 8.96209 25.2133C7.9722 25.2133 7.16968 26.0158 7.16968 27.0057V30.5905C7.16968 40.858 15.059 49.316 25.0938 50.2246V57.5961H16.1317C15.1418 57.5961 14.3393 58.3986 14.3393 59.3885C14.3393 60.3784 15.1418 61.1809 16.1317 61.1809H37.6406C38.6305 61.1809 39.433 60.3784 39.433 59.3885C39.433 58.3986 38.6305 57.5961 37.6406 57.5961H28.6786V50.2246C38.7133 49.316 46.6027 40.858 46.6027 30.5905V27.0057C46.6027 26.0158 45.8001 25.2133 44.8102 25.2133Z" fill="#6A0F2C"/>
<path d="M8.96209 18.0436C9.95197 18.0436 10.7545 17.241 10.7545 16.2512V7.28911C10.7545 6.29922 9.95197 5.4967 8.96209 5.4967C7.9722 5.4967 7.16968 6.29922 7.16968 7.28911V16.2512C7.16968 17.241 7.9722 18.0436 8.96209 18.0436Z" fill="#6A0F2C"/>
<path d="M1.79241 0C0.802521 0 0 0.802521 0 1.79241V21.6284C0 22.6183 0.802521 23.4208 1.79241 23.4208C2.7823 23.4208 3.58482 22.6183 3.58482 21.6284V1.79241C3.58482 0.802521 2.7823 0 1.79241 0Z" fill="#6A0F2C"/>
<path d="M44.8104 5.4967C43.8205 5.4967 43.0179 6.29922 43.0179 7.28911V16.2512C43.0179 17.241 43.8205 18.0436 44.8104 18.0436C45.8002 18.0436 46.6028 17.241 46.6028 16.2512V7.28911C46.6028 6.29922 45.8002 5.4967 44.8104 5.4967Z" fill="#6A0F2C"/>
<path d="M51.9799 0C50.99 0 50.1875 0.802521 50.1875 1.79241V21.6284C50.1875 22.6183 50.99 23.4208 51.9799 23.4208C52.9698 23.4208 53.7723 22.6183 53.7723 21.6284V1.79241C53.7723 0.802521 52.9698 0 51.9799 0Z" fill="#6A0F2C"/>
</svg>
