<svg width="55" height="52" viewBox="0 0 55 52" fill="none" xmlns="http://www.w3.org/2000/svg">
<path d="M3.40813 13.567H14.1916C13.4179 13.0387 12.7533 12.5138 12.2898 12.0435C9.53944 9.27949 9.53944 4.7807 12.2898 2.01667C14.9618 -0.675792 19.6174 -0.668976 22.286 2.01667C23.7652 3.49922 27.6846 9.5351 27.1427 13.567H27.3881C26.8496 9.5351 30.769 3.49922 32.2447 2.01667C34.9167 -0.668976 39.5723 -0.668976 42.2409 2.01667C44.9879 4.7807 44.9879 9.27949 42.2443 12.0435C41.7774 12.5138 41.1128 13.0387 40.3391 13.567H51.1226C53.0005 13.567 54.5308 15.0972 54.5308 16.9751V22.0874C54.5308 23.0281 53.7673 23.7915 52.8267 23.7915H30.6735V16.9751H23.8572V23.7915H1.70404C0.763386 23.7915 -4.57764e-05 23.0281 -4.57764e-05 22.0874V16.9751C-4.57764e-05 15.0972 1.52682 13.567 3.40813 13.567ZM30.8746 13.4545C30.8746 13.4545 31.0178 13.567 31.5051 13.567C33.8602 13.567 38.3556 11.1199 39.8245 9.64075C41.2525 8.20251 41.2525 5.85768 39.8245 4.41943C39.1326 3.72416 38.2158 3.34245 37.2411 3.34245C36.2698 3.34245 35.353 3.72416 34.6611 4.41943C32.364 6.73017 30.0805 12.6331 30.8746 13.4545ZM23.029 13.567C23.513 13.567 23.6561 13.4579 23.6561 13.4545C24.4502 12.6331 22.1667 6.73017 19.8696 4.41943C18.4961 3.0323 16.0934 3.02549 14.7062 4.41943C13.2748 5.85768 13.2748 8.20251 14.7062 9.64075C16.1752 11.1199 20.6705 13.567 23.029 13.567Z" fill="#6A0F2C"/>
<path d="M23.8569 27.1996V51.0568H6.81606C4.93474 51.0568 3.40788 49.53 3.40788 47.6486V27.1996H23.8569Z" fill="#6A0F2C"/>
<path d="M51.1224 27.1996V47.6486C51.1224 49.53 49.5922 51.0568 47.7143 51.0568H30.6734V27.1996H51.1224Z" fill="#6A0F2C"/>
</svg>
