<svg width="36" height="36" viewBox="0 0 36 36" fill="none" xmlns="http://www.w3.org/2000/svg">
<path d="M18 36C27.9411 36 36 27.9411 36 18C36 8.05887 27.9411 0 18 0C8.05887 0 0 8.05887 0 18C0 27.9411 8.05887 36 18 36Z" fill="#039BE5"/>
<path d="M8.23653 17.61L25.5915 10.9185C26.397 10.6275 27.1005 11.115 26.8395 12.333L26.841 12.3315L23.886 26.253C23.667 27.24 23.0805 27.48 22.26 27.015L17.76 23.6985L15.5895 25.7895C15.3495 26.0295 15.147 26.232 14.682 26.232L15.0015 21.6525L23.3415 14.118C23.7045 13.7985 23.2605 13.6185 22.782 13.9365L12.4755 20.4255L8.03253 19.0395C7.06803 18.7335 7.04703 18.075 8.23653 17.61Z" fill="white"/>
</svg>
