<svg width="42" height="25" viewBox="0 0 42 25" fill="none" xmlns="http://www.w3.org/2000/svg">
<path fill-rule="evenodd" clip-rule="evenodd" d="M41.0117 1.73487C41.323 0.756225 41.0117 0.0444833 39.6327 0.0444833H35.0512C33.8947 0.0444833 33.3609 0.66726 33.0495 1.33452C33.0495 1.33452 30.692 7.02847 27.4004 10.7206C26.3329 11.7883 25.8436 12.1441 25.2653 12.1441C24.954 12.1441 24.5536 11.7883 24.5536 10.8096V1.69039C24.5536 0.533806 24.1978 0 23.2192 0H16.0132C15.3015 0 14.8567 0.533805 14.8567 1.06761C14.8567 2.17971 16.5025 2.44662 16.6804 5.5605V12.3221C16.6804 13.79 16.4136 14.0569 15.8353 14.0569C14.2785 14.0569 10.4976 8.31851 8.22902 1.77936C7.78421 0.489324 7.3394 0 6.18289 0H1.55684C0.222406 0 0 0.622773 0 1.29003C0 2.4911 1.55684 8.54093 7.25044 16.548C11.0313 22.0196 16.4136 24.9555 21.262 24.9555C24.1978 24.9555 24.5536 24.2883 24.5536 23.1762V19.0391C24.5536 17.7046 24.8205 17.4822 25.7546 17.4822C26.4218 17.4822 27.6228 17.8381 30.3362 20.4626C33.4499 23.5765 33.9836 25 35.7184 25H40.3C41.6344 25 42.2571 24.3327 41.9013 23.0427C41.501 21.7527 39.9886 19.8843 38.0314 17.6601C36.9639 16.4146 35.3626 15.0356 34.8733 14.3683C34.206 13.4787 34.384 13.1228 34.8733 12.3221C34.8288 12.3221 40.4334 4.40391 41.0117 1.73487Z" fill="#E30613"/>
</svg>
