<svg width="25" height="15" viewBox="0 0 25 15" fill="none" xmlns="http://www.w3.org/2000/svg">
<path fill-rule="evenodd" clip-rule="evenodd" d="M24.1259 1.40001C24.3062 0.841275 24.1259 0.434927 23.3277 0.434927H20.6755C20.006 0.434927 19.697 0.790483 19.5167 1.17144C19.5167 1.17144 18.152 4.42223 16.2465 6.53016C15.6286 7.13969 15.3453 7.34286 15.0106 7.34286C14.8303 7.34286 14.5986 7.13969 14.5986 6.58096V1.37461C14.5986 0.714291 14.3926 0.409531 13.8261 0.409531H9.65466C9.24267 0.409531 8.98518 0.714291 8.98518 1.01905C8.98518 1.65397 9.93791 1.80636 10.0409 3.58413V7.44445C10.0409 8.28254 9.88641 8.43492 9.55167 8.43492C8.65043 8.43492 6.46172 5.15874 5.14849 1.4254C4.891 0.688896 4.6335 0.409531 3.96401 0.409531H1.28606C0.513574 0.409531 0.384827 0.765085 0.384827 1.14604C0.384827 1.83175 1.28606 5.28572 4.582 9.85715C6.77071 12.981 9.88641 14.6571 12.6931 14.6571C14.3926 14.6571 14.5986 14.2762 14.5986 13.6413V11.2794C14.5986 10.5175 14.7531 10.3905 15.2938 10.3905C15.6801 10.3905 16.3753 10.5937 17.946 12.0921C19.7485 13.8698 20.0575 14.6825 21.0617 14.6825H23.7139C24.4864 14.6825 24.8469 14.3016 24.6409 13.5651C24.4092 12.8286 23.5337 11.7619 22.4007 10.4921C21.7827 9.78096 20.8557 8.99366 20.5725 8.6127C20.1862 8.10477 20.2892 7.90159 20.5725 7.44445C20.5467 7.44445 23.7912 2.92381 24.1259 1.40001Z" fill="white"/>
</svg>
